<?xml version="1.0" encoding="UTF-8" standalone="no"?>
<svg
   xmlns="http://www.w3.org/2000/svg"
   id="Layer_1"
   data-name="Layer 1"
   viewBox="0 0 600 537.63"
   version="1.1"
   width="600"
   height="537.63">
  <defs
     id="defs3781">
    <style
       id="style3779">
      .cls-1 {
        fill: #fff;
      }

      .cls-2 {
        fill: #ec008c;
      }

      .cls-3 {
        fill: #231f20;
      }
    </style>
  </defs>
  <g
     id="g3789"
     style="display:inline"
     transform="translate(86,-4.8828125e-6)">
    <polygon
       class="cls-3"
       points="40.77,0 40.77,74.55 0,68.82 0,86.86 0,431.64 0,449.68 228,481.7 228,519.59 228,537.63 292.39,490.74 368.89,501.5 368.89,483.46 368.89,418.43 418.78,425.44 418.78,53.13 "
       id="polygon3783"
       style="display:inline;fill:#231f20" />
    <polygon
       class="cls-2"
       points="46.44,6.52 46.44,367.38 273.07,399.24 273.07,454.86 337.08,408.23 413.12,418.92 413.12,58.05 "
       id="polygon3785"
       style="display:inline;fill:#0099ff;fill-opacity:1" />
    <path
       style="display:inline;fill:#ffffff"
       id="path4020"
       d="m 321.77,307.99 v -18.41 l 12.01,-1.69 v 3.21 l -8.45,1.19 v 4.32 l 7.2,-1.01 v 3.21 l -7.2,1.01 v 4.47 l 8.45,-1.19 v 3.21 L 321.77,308 Z"
       class="cls-1" />
    <path
       style="display:inline;fill:#ffffff"
       id="path4022"
       d="m 352.28,302.89 -7.22,-10.29 v 11.3 l -3.56,0.5 v -18.41 l 3.18,-0.45 7.22,10.26 v -11.28 l 3.56,-0.5 v 18.41 l -3.18,0.45 z"
       class="cls-1" />
    <path
       id="path4853"
       style="display:inline;fill:#ffffff"
       d="m 370.68,300.23 -7.63,1.07 v -18.42 l 7.33,-1.03 c 3.56,-0.5 5.20397,1.03813 5.43,4.18 l 0.3,4.17 0.16,3.94 c 0.13958,3.43717 -2.33,5.63 -5.58,6.09 z m -4.07,-14.63 v 12 l 4.14,-0.62 1.95,-2.51 -0.25,-8.04 c -0.78667,-0.44 -1.57333,-0.88 -2.36,-1.32 z" />
    <path
       style="display:inline;fill:#ffffff"
       id="path4869"
       d="m 110.88,188.81 c 0,-2.97 0.52,-5.67 1.55,-8.09 1.04,-2.42 2.4,-4.5 4.09,-6.22 1.69,-1.72 3.59,-3.11 5.7,-4.17 2.11,-1.05 4.23,-1.73 6.37,-2.04 2.14,-0.3 4.26,-0.22 6.37,0.24 2.11,0.46 4,1.32 5.7,2.57 1.69,1.25 3.06,2.94 4.09,5.07 1.04,2.13 1.55,4.69 1.55,7.66 v 3.73 l -10.57,1.49 v -3.73 c 0,-2.55 -0.71,-4.34 -2.12,-5.35 -1.42,-1.01 -3.09,-1.38 -5.02,-1.11 -1.94,0.27 -3.61,1.11 -5.03,2.52 -1.42,1.41 -2.12,3.39 -2.12,5.95 v 38.96 c 0,2.56 0.71,4.34 2.12,5.35 1.41,1.01 3.09,1.38 5.03,1.11 1.93,-0.27 3.61,-1.11 5.02,-2.52 1.41,-1.41 2.12,-3.39 2.12,-5.95 V 210.4 l -8.39,1.18 v -9.33 l 18.96,-2.66 v 23.21 c 0,3.04 -0.52,5.76 -1.55,8.15 -1.04,2.39 -2.4,4.45 -4.09,6.17 -1.69,1.72 -3.59,3.11 -5.7,4.17 -2.11,1.06 -4.23,1.74 -6.37,2.04 -2.14,0.3 -4.27,0.22 -6.37,-0.25 -2.11,-0.46 -4.01,-1.32 -5.7,-2.57 -1.69,-1.25 -3.06,-2.92 -4.09,-5.02 -1.04,-2.1 -1.55,-4.67 -1.55,-7.71 v -38.96 z m 64.24,-26.43 8.81,-1.24 16.47,71.46 -10.57,1.49 -3.11,-15.42 -14.4,2.02 -3.11,16.29 -10.57,1.49 z m 4.45,20.61 -0.21,0.03 -5.18,27.46 10.57,-1.49 z m 33.78,-25.99 10.15,-1.43 13.57,37.15 0.21,-0.03 13.47,-40.95 10.26,-1.44 v 73.77 l -10.57,1.48 v -44.86 l -0.21,0.03 -10.47,33.18 -5.28,0.74 -10.36,-30.25 -0.21,0.03 v 44.86 l -10.57,1.49 V 157 Z m 65.38,-9.19 31.5,-4.43 v 9.95 l -20.93,2.94 v 21.66 l 18.24,-2.56 v 9.95 l -18.24,2.56 v 21.66 l 20.93,-2.94 v 10.57 l -31.5,4.43 v -73.77 z m 80.3,9.96 -10.57,1.49 v -2.38 c 0,-2.42 -0.57,-4.43 -1.71,-6.03 -1.14,-1.6 -3.06,-2.21 -5.75,-1.83 -1.45,0.2 -2.64,0.65 -3.57,1.33 -0.93,0.68 -1.66,1.49 -2.18,2.43 -0.52,0.94 -0.88,1.99 -1.09,3.16 -0.21,1.17 -0.31,2.38 -0.31,3.62 0,1.45 0.05,2.67 0.16,3.66 0.1,0.99 0.36,1.81 0.78,2.48 0.41,0.67 1.02,1.22 1.81,1.66 0.79,0.44 1.88,0.84 3.26,1.2 l 8.08,2.08 c 2.35,0.57 4.25,1.36 5.7,2.36 1.45,1.01 2.57,2.26 3.37,3.77 0.79,1.51 1.33,3.3 1.61,5.37 0.28,2.07 0.41,4.45 0.41,7.14 0,3.11 -0.31,6.04 -0.93,8.78 -0.62,2.75 -1.64,5.17 -3.06,7.27 -1.42,2.1 -3.3,3.87 -5.65,5.3 -2.35,1.43 -5.22,2.39 -8.6,2.87 -2.56,0.36 -4.94,0.24 -7.15,-0.34 -2.21,-0.59 -4.11,-1.55 -5.7,-2.88 -1.59,-1.33 -2.85,-3 -3.78,-5.01 -0.93,-2.01 -1.4,-4.26 -1.4,-6.75 v -3.94 l 10.57,-1.48 v 3.31 c 0,1.94 0.57,3.6 1.71,4.99 1.14,1.39 3.06,1.9 5.75,1.52 1.8,-0.25 3.19,-0.71 4.2,-1.37 1,-0.66 1.76,-1.49 2.28,-2.5 0.52,-1 0.84,-2.21 0.98,-3.61 0.14,-1.4 0.21,-2.93 0.21,-4.59 0,-1.93 -0.07,-3.51 -0.21,-4.74 -0.14,-1.22 -0.43,-2.18 -0.88,-2.88 -0.45,-0.7 -1.07,-1.23 -1.87,-1.6 -0.79,-0.37 -1.85,-0.74 -3.16,-1.11 l -7.56,-2.04 c -4.56,-1.22 -7.62,-3.26 -9.17,-6.12 -1.55,-2.85 -2.33,-6.6 -2.33,-11.22 0,-2.76 0.38,-5.44 1.14,-8.04 0.76,-2.59 1.88,-4.89 3.37,-6.9 1.49,-2 3.37,-3.7 5.65,-5.09 2.28,-1.39 4.94,-2.3 7.98,-2.73 2.62,-0.37 5.03,-0.22 7.2,0.44 2.18,0.66 4.04,1.68 5.6,3.05 1.55,1.37 2.75,2.98 3.57,4.83 0.83,1.85 1.24,3.81 1.24,5.89 z m -203.7,174.93 -9.95,1.4 -8.08,-46.73 -0.21,0.03 -7.98,48.99 -9.95,1.4 -10.98,-72.23 11.19,-1.57 5.28,46.09 0.21,-0.03 8.29,-48 8.08,-1.14 8.6,46.76 0.21,-0.03 5.08,-48.69 11.19,-1.57 z m 25.38,-77.34 31.5,-4.43 v 9.95 l -20.93,2.94 v 21.66 l 18.24,-2.56 v 9.95 l -18.24,2.56 v 21.66 l 20.93,-2.94 v 10.57 l -31.5,4.43 v -73.77 z m 46.11,-6.48 31.5,-4.43 v 9.95 l -20.93,2.94 V 279 l 18.24,-2.56 v 9.95 l -18.24,2.56 v 21.66 l 20.93,-2.94 v 10.57 l -31.5,4.43 V 248.9 Z m 46.11,-6.48 10.57,-1.49 v 33.67 l 0.21,-0.03 15.44,-35.84 10.57,-1.49 -14.4,31.55 17.1,41.84 -11.19,1.57 -12.02,-31.05 -5.7,11.47 v 22.07 l -10.57,1.49 V 242.39 Z M 126.32,119.73 V 109 l -3.48,7.47 -2.41,0.34 -3.51,-6.49 v 10.73 l -3.56,0.5 v -18.41 l 3.51,-0.49 4.76,9.29 4.74,-10.62 3.51,-0.49 v 18.41 l -3.56,0.5 z m -12.97,31.68 V 133 l 3.56,-0.5 v 18.41 z m 21.16,-2.97 -7.22,-10.29 v 11.3 l -3.56,0.5 v -18.42 l 3.18,-0.45 7.22,10.26 v -11.28 l 3.56,-0.5 v 18.41 l -3.18,0.45 z m 16.96,-17.59 v 15.21 l -3.56,0.5 v -15.21 l -4.76,0.67 v -3.21 l 13.09,-1.84 v 3.21 l -4.76,0.67 z m 10.22,13.77 v -18.41 l 12.01,-1.69 v 3.21 l -8.45,1.19 v 4.32 l 7.2,-1.01 v 3.21 l -7.2,1.01 v 4.47 l 8.45,-1.19 v 3.21 l -12.01,1.69 z m 27.74,-3.9 -3.56,-6.84 -2.56,0.36 v 7.35 l -3.56,0.5 v -18.42 l 7.15,-1 c 3.71,-0.52 5.92,1.73 5.92,4.81 0,2.59 -1.56,4.41 -3.33,5.3 l 4.07,7.37 -4.12,0.58 z m -2.77,-14.82 -3.35,0.47 v 4.86 l 3.35,-0.47 c 1.56,-0.22 2.59,-1.37 2.59,-2.79 0,-1.42 -1.02,-2.29 -2.59,-2.07 z m 23.18,11.95 -7.22,-10.29 v 11.3 l -3.56,0.5 v -18.41 l 3.18,-0.45 7.22,10.26 v -11.28 l 3.56,-0.5 v 18.41 l -3.18,0.45 z m 20.36,-2.86 -1.08,-3.11 -6.48,0.91 -1.1,3.41 -3.71,0.52 6.63,-19.35 2.79,-0.39 6.66,17.48 -3.71,0.52 z m -4.25,-12.39 -2.31,7.02 4.53,-0.64 -2.23,-6.39 z m 18.21,-4.78 v 15.21 l -3.56,0.5 v -15.21 l -4.76,0.67 v -3.21 l 13.09,-1.84 v 3.21 l -4.76,0.67 z m 10.22,13.77 v -18.41 l 3.56,-0.5 v 18.42 l -3.56,0.5 z m 21.41,-4.87 c -1.28,1.47 -2.84,2.42 -4.92,2.71 -2.07,0.29 -3.66,-0.21 -4.94,-1.32 -1.84,-1.6 -1.79,-3.91 -1.79,-7.09 0,-3.18 -0.05,-5.48 1.79,-7.6 1.28,-1.47 2.87,-2.42 4.94,-2.71 2.07,-0.29 3.64,0.21 4.92,1.33 1.84,1.6 1.82,3.91 1.82,7.09 0,3.18 0.03,5.48 -1.82,7.6 z m -2.64,-12.15 c -0.51,-0.52 -1.31,-0.8 -2.28,-0.66 -0.97,0.14 -1.79,0.64 -2.31,1.31 -0.69,0.87 -0.87,1.75 -0.87,5.3 0,3.55 0.18,4.37 0.87,5.05 0.51,0.52 1.33,0.8 2.31,0.66 0.97,-0.14 1.77,-0.64 2.28,-1.3 0.69,-0.87 0.9,-1.75 0.9,-5.3 0,-3.55 -0.21,-4.37 -0.9,-5.05 z m 21.44,11.37 -7.22,-10.29 v 11.3 l -3.56,0.5 v -18.42 l 3.18,-0.45 7.22,10.26 v -11.28 l 3.56,-0.5 v 18.41 l -3.18,0.45 z m 20.37,-2.86 -1.08,-3.11 -6.48,0.91 -1.1,3.41 -3.71,0.52 6.63,-19.35 2.79,-0.39 6.66,17.48 -3.71,0.52 z m -4.25,-12.39 -2.31,7.02 4.53,-0.64 -2.23,-6.39 z m 12.78,11.19 v -18.41 l 3.56,-0.5 v 15.21 l 8.27,-1.16 v 3.21 l -11.83,1.66 z"
       class="cls-1" />
    <path
       style="display:inline;fill:#ffffff"
       id="path4901"
       d="m 146.92,116.73 -1.08,-3.11 -6.48,0.91 -1.1,3.41 -3.71,0.52 6.63,-19.35 2.79,-0.39 6.66,17.48 -3.71,0.52 z m -4.25,-12.39 -2.31,7.02 4.53,-0.64 -2.23,-6.39 z"
       class="cls-1" />
    <path
       style="display:inline;fill:#ffffff"
       d="m 166.2182,113.7926 -4.18,-7.01 -4.48,8.22 -3.71,0.52 5.33,-10.65 5.79,-0.19 4.96,8.58 -3.71,0.52 z"
       id="path4907" />
    <path
       id="path4909"
       d="m 158.2282,96.2126 4.18,7.01 4.48,-8.22 3.71,-0.52 -5.33,10.65 -5.79,0.19 -4.96,-8.58 3.71,-0.52 z"
       style="display:inline;fill:#ffffff" />
  </g>
  <g
     id="g3803"
     style="display:inline"
     transform="translate(86,-4.8828125e-6)">
    <path
       class="cls-1"
       d="m 80.83,440.73 6.07,-46.07 6.34,0.83 5.26,25.51 0.13,0.02 11.62,-23.29 6.41,0.84 -6.07,46.07 -6.6,-0.87 3.69,-28.02 -0.13,-0.02 -9.14,18.94 -3.3,-0.43 -3.86,-20.65 -0.13,-0.02 -3.69,28.02 -6.6,-0.87 z"
       id="path3791"
       style="display:inline;fill:#ffffff" />
    <path
       class="cls-1"
       d="m 116.62,445.44 6.07,-46.07 6.6,0.87 -6.07,46.07 z"
       id="path3793"
       style="fill:#ffffff" />
    <path
       class="cls-1"
       d="m 133.48,411.85 c 0.24,-1.85 0.78,-3.45 1.62,-4.79 0.83,-1.34 1.85,-2.41 3.06,-3.22 1.15,-0.77 2.42,-1.3 3.8,-1.61 1.38,-0.3 2.74,-0.36 4.07,-0.19 1.34,0.18 2.63,0.59 3.89,1.24 1.25,0.65 2.36,1.5 3.32,2.54 0.91,1.08 1.59,2.38 2.05,3.89 0.46,1.51 0.57,3.19 0.32,5.05 l -0.31,2.33 -6.6,-0.87 0.31,-2.33 c 0.21,-1.6 -0.08,-2.83 -0.86,-3.7 -0.79,-0.87 -1.78,-1.39 -2.99,-1.55 -1.21,-0.16 -2.3,0.08 -3.29,0.72 -0.98,0.64 -1.58,1.76 -1.79,3.35 l -3.2,24.33 c -0.21,1.6 0.08,2.83 0.86,3.7 0.79,0.87 1.78,1.39 2.99,1.54 1.21,0.16 2.3,-0.08 3.29,-0.72 0.98,-0.64 1.58,-1.76 1.79,-3.35 l 1.14,-8.67 -5.24,-0.69 0.77,-5.82 11.84,1.56 -1.91,14.5 c -0.26,1.94 -0.8,3.56 -1.63,4.85 -0.83,1.3 -1.82,2.33 -2.98,3.1 -1.2,0.81 -2.49,1.36 -3.87,1.66 -1.38,0.3 -2.74,0.36 -4.07,0.19 -1.34,-0.18 -2.63,-0.59 -3.89,-1.24 -1.26,-0.65 -2.33,-1.51 -3.25,-2.6 -0.96,-1.05 -1.67,-2.3 -2.14,-3.77 -0.47,-1.47 -0.57,-3.17 -0.31,-5.11 l 3.2,-24.33 z"
       id="path3795"
       style="fill:#ffffff" />
    <path
       class="cls-1"
       d="m 196.71,409.11 -12.92,45.17 -6.21,-0.82 -1.11,-30.56 -0.13,-0.02 -8.92,29.24 -6.21,-0.82 -0.79,-46.98 6.99,0.92 -0.55,29.68 0.13,0.02 9.03,-28.57 5.05,0.66 1.43,30.67 0.13,0.02 7.12,-29.54 6.99,0.92 z"
       id="path3797"
       style="fill:#ffffff" />
    <path
       class="cls-1"
       d="m 193.49,455.56 0.82,-6.21 14.86,-20.89 c 0.75,-1.04 1.22,-1.98 1.42,-2.81 0.2,-0.83 0.38,-1.87 0.54,-3.12 0.07,-0.56 0.14,-1.16 0.2,-1.78 0.06,-0.63 0.01,-1.19 -0.14,-1.7 -0.15,-0.5 -0.43,-0.94 -0.81,-1.32 -0.39,-0.38 -0.99,-0.62 -1.81,-0.73 -0.99,-0.13 -1.82,0.05 -2.47,0.53 -0.66,0.48 -1.06,1.27 -1.2,2.34 l -0.49,3.75 -6.6,-0.87 0.48,-3.62 c 0.18,-1.38 0.61,-2.64 1.29,-3.78 0.68,-1.14 1.53,-2.1 2.55,-2.89 0.98,-0.79 2.11,-1.38 3.39,-1.76 1.28,-0.38 2.61,-0.48 3.99,-0.3 1.72,0.23 3.16,0.73 4.31,1.52 1.15,0.79 2.06,1.77 2.74,2.96 0.63,1.18 1.04,2.49 1.23,3.91 0.18,1.43 0.17,2.92 -0.03,4.47 -0.15,1.12 -0.29,2.06 -0.44,2.81 -0.14,0.75 -0.32,1.46 -0.54,2.13 -0.22,0.67 -0.53,1.34 -0.92,1.99 -0.39,0.65 -0.91,1.44 -1.56,2.36 l -12.17,17.42 11.91,1.57 -0.87,6.6 -19.67,-2.59 z"
       id="path3799"
       style="fill:#ffffff" />
    <text
       xml:space="preserve"
       style="font-style:normal;font-weight:normal;font-size:35.77708817px;line-height:1.25;font-family:sans-serif;letter-spacing:0px;word-spacing:0px;display:inline;fill:#ffffff;fill-opacity:1;stroke:none;stroke-width:0.89442718"
       x="271.55676"
       y="391.28833"
       id="text4913"
       transform="matrix(0.89224842,0.07799011,-0.06239209,1.1153105,0,0)"><tspan
         id="tspan4911"
         x="271.55676"
         y="391.28833"
         style="font-style:normal;font-variant:normal;font-weight:normal;font-stretch:normal;font-size:57.24333954px;font-family:Bahnschrift;-inkscape-font-specification:Bahnschrift;stroke-width:0.89442718">5</tspan></text>
  </g>
  <path
     class="cls-1"
     d="m 152.16,410.47 -2.29,7.96 -6.84,-0.9 2.29,-7.97 6.84,0.9 z m 12.4,1.63 0.85,-6.45 -4.35,-0.57 3.2,-11.48 -7.03,-0.93 -3.27,11.47 -6.84,-0.9 3.27,-11.47 -7.09,-0.94 -3.2,11.48 -5.63,-0.74 -0.78,6.46 4.54,0.59 -2.23,7.98 -5.37,-0.7 -0.84,6.38 4.35,0.57 -3.55,12.61 7.03,0.93 3.55,-12.61 6.84,0.9 -3.55,12.61 7.1,0.93 3.54,-12.6 5.56,0.73 0.84,-6.39 -4.54,-0.59 2.22,-7.98 5.37,0.7 z"
     id="path3805"
     style="display:inline;fill:#ffffff"/>
</svg>
