<svg xmlns="http://www.w3.org/2000/svg" viewBox="0 0 952 1022.92">
  <path fill="#f0cb21" d="M372.09 611.33c17.97 4.65 40.5 19.85 45.89 65.83.8 6.85 1.13 13.13 1.17 19.07 110.94 19.05 224.89 20.6 336.21 3.95 28.66-4.29 51-27.97 52.47-56.91 5.13-101.33-12.79-203.81-52.34-297.26-17.72-41.86-40.99-83.41-78.24-109.47-35.64-24.92-80.33-33.03-123.55-36.91-54.49-4.9-109.36-3.09-163.62 3.88-38.4 4.93-80.96 4.73-96.92 43.88-41.22 101.06-43.16 234.56-36.53 341.72 1.33 21.52 3.97 44.55 18.08 60.86 4.28 4.95 9.57 8.63 15.16 11.9 2.76-2.07 8.01-10.34 9.76-13.09 27.66-43.59 59.92-40.68 72.49-37.44Z"/>
  <path fill="#404bb5" d="M925.45 609.48c-15.13-10.92-33.66-14.46-51.04-10.92-5.17-18.61-11.04-37.01-16.96-54.89-21.04-63.53-42.09-127.06-63.13-190.59-12.36-37.31-25.2-75.52-49.95-106.04-47.92-59.1-128.01-76.42-204.72-86.32 21.4-46.74 56.75-80.65 107.75-102.65 16.94-7.31 32.71-15.74 33.41-27.85.38-6.57-3.62-12.31-11.87-17.06-19.19-11.04-55.16-9.25-77.48-1.27-21.67 7.76-34.03 18.56-44.84 28.96-28.45 27.4-48.24 65.13-60.05 113.73-11.97-1.26-23.98-2.31-35.99-3.16-29.12-64.29-65.84-108.23-111.31-133.24-14.42-7.93-30.6-15.84-55.77-17.86-26.06-2.09-64.98 6.82-81.56 23.42-7.21 7.21-9.76 14.22-7.56 20.83 4.1 12.32 23.08 16.68 42.98 19.55 64.28 9.31 113.85 37.68 150.88 86.11-25.75 1.24-51.17 4.99-75.84 12.85-50.12 15.97-92.86 47.81-129.24 85.12-33.26 34.1-58.05 74.01-88.33 110.37-30.49 36.61-37.89 75.39-47.15 122.56-21.26 108.29-26.44 219.74-15.09 329.52 2.98 28.83 8.23 59.25 21.04 84.71a166 166 0 0 0-33.7 23.35C-.83 937.27-5.93 966.4 7.23 991.2c10.65 20.07 30.41 31.76 51.87 31.76 4.88 0 9.86-.61 14.84-1.86 7.41-1.87 14.64-4.5 21.5-7.83 25.63-12.45 50.71-38.46 67.05-56.23 10.66.84 21.37 1.36 31.87 1.63 111.39 2.8 224.54 5.25 334.73-8.23-.56 4.27-.71 8.66-.17 13.11 2.66 22.06 18.25 39.77 39.67 45.13 8.91 2.23 18.07 3.33 27.2 3.33 17.97 0 35.85-4.26 51.47-12.51 32.57-17.17 54.91-50.61 58.3-87.28l-1.28-.12c1.26-.42 2.54-.78 3.8-1.21 66.75-22.78 134.52-59.5 165.17-123.02 4.07-8.44 7.26-17.08 9.86-25.83 11.1-8.41 21.74-17.9 31.24-29l3.28-3.79c11.12-12.84 24.96-28.83 31.44-49.75 8.15-26.28-1.13-53.77-23.63-70.01Zm-117.63 33.78c-1.47 28.94-23.81 52.62-52.47 56.91-111.32 16.65-225.27 15.1-336.21-3.95-.04-5.94-.37-12.22-1.17-19.07-5.38-45.98-27.92-61.17-45.89-65.83-12.57-3.24-44.83-6.15-72.49 37.44-1.74 2.75-7 11.02-9.76 13.09-5.59-3.27-10.88-6.95-15.16-11.9-14.11-16.31-16.75-39.34-18.08-60.86-6.63-107.16-4.68-240.65 36.53-341.72 15.97-39.15 58.52-38.95 96.92-43.88 10.24-1.31 20.51-2.32 30.79-3.19 6.77-.62 13.54-1.14 20.33-1.58h.01c12.47-.82 24.95-1.39 37.44-1.6h.02c12.92-.22 25.83-.14 38.75.33 12.1.44 24.2 1.08 36.28 2.16 43.22 3.89 87.91 11.99 123.55 36.91 37.25 26.05 60.52 67.6 78.24 109.47 39.55 93.45 57.47 195.93 52.34 297.26Z"/>
  <path fill="#404bb5" d="M699.18 377.32C688 311.27 637.47 263.05 586.75 269.83c-18.44 2.46-34.77 11.62-47.48 26.16-4.23 4.84-11.76 4.95-15.94.06-19.58-22.91-45.04-35.38-71.04-33.95-21.08 1.21-40.45 11.22-56 28.94-22.83 26.02-34.65 66.41-31.62 108.07 5.13 70.38 50.51 125.61 102.19 125.6q2.07 0 4.17-.12c29.76-1.7 56.42-21.86 72.4-53.76 22.34 28.62 52.98 43.47 83.1 39.53 20.75-2.77 38.9-13.97 52.49-32.41 19.22-26.06 26.56-62.74 20.16-100.64Zm-40.33 85.77c-9.46 12.83-21.79 20.59-35.63 22.44-24.74 3.28-50.82-12.82-68.16-42.02-3.18-5.36-9.01-8.35-15.14-7.7-6.16.61-11.26 4.66-13.33 10.56-11.11 31.91-32.42 51.82-57 53.23-40.14 2.02-75.65-43.6-79.93-102.29-2.55-35.1 6.97-68.63 25.46-89.7 11.03-12.57 24.38-19.64 38.6-20.47.92-.05 1.84-.07 2.77-.07 16.92 0 33.5 9.06 47.09 24.7-1.62-.25-3.22-.56-4.89-.56-20.15 0-36.54 18.48-36.54 41.19s16.39 41.2 36.54 41.2c16.15 0 29.73-11.95 34.54-28.36l.05.1 10.47-28c9.13-24.4 26.01-39.95 46.3-42.65 16.84-2.21 33.66 4.34 47.93 16.93-1.22-.14-2.4-.41-3.65-.41-19.68 0-35.69 17.72-35.69 39.5s16.01 39.5 35.69 39.5c16.79 0 30.82-12.94 34.6-30.26 2.35 6.86 4.25 14.04 5.52 21.55 5.2 30.77-.64 61.27-15.61 81.59Z"/>
</svg>
